<svg width="48" height="48" viewBox="0 0 48 48" fill="none" xmlns="http://www.w3.org/2000/svg">
  <!-- Nube -->
  <path
    d="M38 28C40.2091 28 42 26.2091 42 24C42 21.7909 40.2091 20 38 20C38 14.4772 33.5228 10 28 10C23.5817 10 19.8682 13.0537 18.6127 17.2088C18.4108 17.0729 18.2058 16.9422 17.998 16.8168C16.8667 16.2891 15.6167 16 14.3 16C9.66355 16 6 19.6636 6 24.3C6 27.0823 7.34461 29.5485 9.44444 31"
    stroke="currentColor"
    stroke-width="2.5"
    stroke-linecap="round"
    stroke-linejoin="round"
  />
  <!-- Flecha hacia abajo -->
  <path
    d="M24 22V38M24 38L18 32M24 38L30 32"
    stroke="currentColor"
    stroke-width="2.5"
    stroke-linecap="round"
    stroke-linejoin="round"
  />
</svg>